<?xml version="1.0" standalone="no"?>
<!DOCTYPE svg PUBLIC "-//W3C//DTD SVG 1.0//EN" "http://www.w3.org/TR/2001/REC-SVG-20010904/DTD/svg10.dtd">
<svg xmlns="http://www.w3.org/2000/svg" xmlns:xlink="http://www.w3.org/1999/xlink" id="body_1" width="102" height="77">

<g transform="matrix(0.12115597 0 0 0.12115597 -0 2.4391365)">
	<g>
	</g>
    <path d="M206.02 397.84C 206.02 397.84 135.93001 355.61 156.99 271.14L156.99 271.14L183.14 230.53001L273.75 211.94002L325.86 270.78003L321.65 271.76004C 321.65 271.76004 270.66 209.06004 199.84 261.04004C 158.81 291.72 163.16 375.1 206.02 397.84z" stroke="none" fill="#E6204E" fill-rule="nonzero" />
	<g>
	</g>
    <path d="M364.35 242.48L364.36002 242.47C 364.36002 242.47 364.32 242.42 364.27002 242.35C 363.24002 240.77 362.05002 239.3 360.71002 237.98001C 346.60004 221.53001 292.73 167.11002 220.82002 198.59001C 148.27002 232.16 154.40002 285.94 154.40002 285.94C 154.40002 285.94 177.86002 223.85 240.67001 225.66C 288.68002 227.46 306.67 249.06 319.87 268.94C 324.28 276.92 332.78 282.33002 342.54 282.33002C 356.84 282.33002 368.44 270.73 368.44 256.43002C 368.45 251.29 366.93 246.51 364.35 242.48z" stroke="none" fill="#42A9E0" fill-rule="nonzero" />
	<g>
	</g>
    <path d="M284.15 404.91C 283.25 402.85 281.44998 401.48 279.41 401.03L279.41 401.03L279.41 401.02L279.37 401.02C 278.87 400.91 278.36 400.84998 277.85 400.86L277.85 400.86L277.77002 400.84998C 277.73 400.84998 277.69003 400.84998 277.65002 400.86996C 277.50003 400.88995 277.29004 400.91995 277.12003 400.93997C 276.92 400.96997 276.71002 400.96997 276.51004 401.01996C 276.49005 401.01996 276.48004 401.01996 276.46005 401.02997C 261.06006 402.96997 189.73004 407.01996 171.65005 319.24997C 171.65005 319.24997 158.19005 381.23996 225.96005 409.03998C 259.11005 422.21 276.23004 415.56998 279.00006 414.27997C 279.02005 414.26996 279.03006 414.26996 279.05005 414.25998C 279.59006 414.16998 280.13004 414.03998 280.65005 413.80997C 284.07 412.31 285.63 408.33 284.15 404.91z" stroke="none" fill="#B7B2B0" fill-rule="nonzero" />
    <path d="M309.66 401.72C 309.66 399.5523 308.89362 397.70203 307.36078 396.16922C 305.828 394.6364 303.97772 393.87003 301.81 393.87C 299.64227 393.87003 297.79202 394.6364 296.25922 396.16922C 294.7264 397.70203 293.96 399.5523 293.96 401.72C 293.96 403.88776 294.7264 405.738 296.25922 407.27078C 297.79202 408.80362 299.64227 409.57004 301.81 409.57C 303.97772 409.57004 305.828 408.80362 307.36078 407.27078C 308.89362 405.738 309.66 403.88776 309.66 401.72" stroke="none" fill="#B7B2B0" fill-rule="nonzero" />
	<g>
	</g>
    <path d="M327.06998 391.21C 327.07 389.70227 326.53693 388.41534 325.4708 387.34918C 324.40466 386.28308 323.11774 385.75003 321.61 385.75C 320.10226 385.75003 318.8153 386.28308 317.74918 387.34918C 316.68304 388.41534 316.15 389.70227 316.15 391.21C 316.15 392.7177 316.68304 394.00467 317.74918 395.0708C 318.8153 396.13693 320.10226 396.66998 321.61 396.66998C 323.11774 396.66998 324.40466 396.13693 325.4708 395.0708C 326.53693 394.00467 327.07 392.7177 327.06998 391.21" stroke="none" fill="#B7B2B0" fill-rule="nonzero" />
	<g>
	</g>
	<g transform="matrix(0.3531165 0 0 1 130.85806 0)">
	</g>
    <path transform="matrix(0.3531165 0 0 1 130.85806 0)"  d="M220.37 334.39C 215.2 334.39 210.89 332.64 207.45 329.15002C 204.01 325.66003 202.29 321.36002 202.29 316.26L202.29 316.26L202.29 316.16C 202.29 311.06 204.01999 306.74 207.48 303.22C 210.94 299.7 215.34 297.93 220.67 297.93C 223.79 297.93 226.44 298.38998 228.63 299.31C 230.81 300.23 232.79001 301.58 234.57 303.36L234.57 303.36L229.63 309.05C 226.71 306.4 223.70001 305.06998 220.62001 305.06998C 217.70001 305.06998 215.27 306.13998 213.32 308.27C 211.37001 310.4 210.40001 313 210.40001 316.05L210.40001 316.05L210.40001 316.15C 210.40001 319.24 211.36002 321.86 213.3 324.00998C 215.23 326.15997 217.67 327.22998 220.63 327.22998C 222.51001 327.22998 224.14 326.88998 225.51001 326.21997C 226.89001 325.54996 228.35 324.50998 229.89001 323.09998L229.89001 323.09998L234.82 328.08997C 232.87001 330.16995 230.78001 331.73996 228.55 332.79996C 226.32 333.86996 223.6 334.38995 220.37 334.38995L220.37 334.38995L220.37 334.39z" stroke="none" fill="#E6204E" fill-rule="nonzero" />
	<g transform="matrix(0.3531165 0 0 1 130.85806 0)">
	</g>
    <path transform="matrix(0.3531165 0 0 1 130.85806 0)"  d="M241.02 333.79L241.02 298.54L248.77 298.54L248.77 326.74002L266.34 326.74002L266.34 333.79L241.02 333.79z" stroke="none" fill="#E6204E" fill-rule="nonzero" />
	<g transform="matrix(0.3531165 0 0 1 130.85806 0)">
	</g>
    <path transform="matrix(0.3531165 0 0 1 130.85806 0)"  d="M272.19 333.79L272.19 298.54L298.78 298.54L298.78 305.44L279.9 305.44L279.9 312.59L296.52 312.59L296.52 319.49L279.9 319.49L279.9 326.88998L299.03998 326.88998L299.03998 333.78998L272.19 333.79z" stroke="none" fill="#E6204E" fill-rule="nonzero" />
	<g transform="matrix(0.3531165 0 0 1 130.85806 0)">
	</g>
    <path transform="matrix(0.3531165 0 0 1 130.85806 0)"  d="M317.16 334.04L302.91 298.54L311.47 298.54L320.69 323.36002L329.9 298.54L338.25998 298.54L324 334.04L317.16 334.04z" stroke="none" fill="#E6204E" fill-rule="nonzero" />
	<g transform="matrix(0.3531165 0 0 1 130.85806 0)">
	</g>
    <path transform="matrix(0.3531165 0 0 1 130.85806 0)"  d="M343.69 333.79L343.69 298.54L370.28 298.54L370.28 305.44L351.4 305.44L351.4 312.59L368.02 312.59L368.02 319.49L351.4 319.49L351.4 326.88998L370.53998 326.88998L370.53998 333.78998L343.69 333.79z" stroke="none" fill="#E6204E" fill-rule="nonzero" />
	<g transform="matrix(0.3531165 0 0 1 130.85806 0)">
	</g>
    <path transform="matrix(0.3531165 0 0 1 130.85806 0)"  d="M377.43 333.79L377.43 298.54L393.53998 298.54C 397.99997 298.54 401.43 299.73 403.80997 302.11002C 405.81998 304.12003 406.82996 306.81003 406.82996 310.17L406.82996 310.17L406.82996 310.27002C 406.82996 315.68002 404.30997 319.32 399.27997 321.2L399.27997 321.2L407.88995 333.79L398.82996 333.79L391.27997 322.51L385.18997 322.51L385.18997 333.79L377.43 333.79zM385.19 315.66L393.05 315.66C 394.9 315.66 396.34998 315.21 397.40997 314.30002C 398.46997 313.39 398.99997 312.18002 398.99997 310.67L398.99997 310.67L398.99997 310.57C 398.99997 308.93 398.45996 307.67 397.38998 306.82C 396.31998 305.96002 394.81998 305.54 392.90997 305.54L392.90997 305.54L385.20996 305.54L385.20996 315.66z" stroke="none" fill="#E6204E" fill-rule="nonzero" />
	<g transform="matrix(0.3531165 0 0 1 130.85806 0)">
	</g>
    <path transform="matrix(0.3531165 0 0 1 130.85806 0)"  d="M428.95 333.79L428.95 298.54L455.54 298.54L455.54 305.44L436.66 305.44L436.66 312.59L453.28 312.59L453.28 319.49L436.66 319.49L436.66 326.88998L455.8 326.88998L455.8 333.78998L428.95 333.79z" stroke="none" fill="#E6204E" fill-rule="nonzero" />
	<g transform="matrix(0.3531165 0 0 1 130.85806 0)">
	</g>
    <path transform="matrix(0.3531165 0 0 1 130.85806 0)"  d="M462.68 333.79L462.68 298.54L470.43 298.54L470.43 326.74002L488 326.74002L488 333.79L462.68 333.79z" stroke="none" fill="#E6204E" fill-rule="nonzero" />
	<g transform="matrix(0.3531165 0 0 1 130.85806 0)">
	</g>
    <path transform="matrix(0.3531165 0 0 1 130.85806 0)"  d="M493.85 333.79L493.85 298.54L520.44 298.54L520.44 305.44L501.56 305.44L501.56 312.59L518.18 312.59L518.18 319.49L501.56 319.49L501.56 326.88998L520.7 326.88998L520.7 333.78998L493.85 333.79z" stroke="none" fill="#E6204E" fill-rule="nonzero" />
	<g transform="matrix(0.3531165 0 0 1 130.85806 0)">
	</g>
    <path transform="matrix(0.3531165 0 0 1 130.85806 0)"  d="M544.11 334.39C 538.94 334.39 534.63 332.64 531.19 329.15002C 527.75 325.66003 526.03 321.36002 526.03 316.26L526.03 316.26L526.03 316.16C 526.03 311.06 527.76 306.74 531.22003 303.22C 534.68005 299.7 539.08 297.93 544.41003 297.93C 547.53 297.93 550.18005 298.38998 552.37006 299.31C 554.55005 300.23 556.53 301.58 558.31006 303.36L558.31006 303.36L553.37006 309.05C 550.4501 306.4 547.4501 305.06998 544.36005 305.06998C 541.44006 305.06998 539.0101 306.13998 537.06006 308.27C 535.11005 310.4 534.1401 313 534.1401 316.05L534.1401 316.05L534.1401 316.15C 534.1401 319.24 535.1001 321.86 537.0401 324.00998C 538.9701 326.15997 541.4101 327.22998 544.3701 327.22998C 546.2501 327.22998 547.8801 326.88998 549.2501 326.21997C 550.6301 325.54996 552.09015 324.50998 553.6301 323.09998L553.6301 323.09998L558.5701 328.08997C 556.6201 330.16995 554.53015 331.73996 552.3001 332.79996C 550.0601 333.86996 547.33014 334.38995 544.1101 334.38995L544.1101 334.38995L544.11 334.39z" stroke="none" fill="#E6204E" fill-rule="nonzero" />
	<g transform="matrix(0.3531165 0 0 1 130.85806 0)">
	</g>
    <path transform="matrix(0.3531165 0 0 1 130.85806 0)"  d="M572.96 333.79L572.96 305.69L562.23004 305.69L562.23004 298.54L591.44006 298.54L591.44006 305.69L580.7101 305.69L580.7101 333.79L572.96 333.79z" stroke="none" fill="#E6204E" fill-rule="nonzero" />
	<g transform="matrix(0.3531165 0 0 1 130.85806 0)">
	</g>
    <path transform="matrix(0.3531165 0 0 1 130.85806 0)"  d="M597.38 333.79L597.38 298.54L613.49 298.54C 617.95 298.54 621.38 299.73 623.76 302.11002C 625.77 304.12003 626.78 306.81003 626.78 310.17L626.78 310.17L626.78 310.27002C 626.78 315.68002 624.26 319.32 619.23004 321.2L619.23004 321.2L627.84 333.79L618.78 333.79L611.23004 322.51L605.14 322.51L605.14 333.79L597.38 333.79zM605.14 315.66L613 315.66C 614.85 315.66 616.3 315.21 617.36 314.30002C 618.42 313.39 618.95 312.18002 618.95 310.67L618.95 310.67L618.95 310.57C 618.95 308.93 618.41003 307.67 617.34 306.82C 616.26 305.96002 614.77 305.54 612.86005 305.54L612.86005 305.54L605.15 305.54L605.15 315.66z" stroke="none" fill="#E6204E" fill-rule="nonzero" />
	<g transform="matrix(0.3531165 0 0 1 130.85806 0)">
	</g>
    <path transform="matrix(0.3531165 0 0 1 130.85806 0)"  d="M634.14 333.79L634.14 298.54L641.89 298.54L641.89 333.79L634.14 333.79z" stroke="none" fill="#E6204E" fill-rule="nonzero" />
	<g transform="matrix(0.3531165 0 0 1 130.85806 0)">
	</g>
    <path transform="matrix(0.3531165 0 0 1 130.85806 0)"  d="M667.23 334.39C 662.06 334.39 657.75 332.64 654.31 329.15002C 650.87 325.66003 649.15 321.36002 649.15 316.26L649.15 316.26L649.15 316.16C 649.15 311.06 650.88 306.74 654.34 303.22C 657.80005 299.7 662.2 297.93 667.53 297.93C 670.65 297.93 673.30005 298.38998 675.49005 299.31C 677.67004 300.23 679.65 301.58 681.43005 303.36L681.43005 303.36L676.49005 309.05C 673.57007 306.4 670.57007 305.06998 667.48004 305.06998C 664.56006 305.06998 662.13007 306.13998 660.18005 308.27C 658.23004 310.4 657.2601 313 657.2601 316.05L657.2601 316.05L657.2601 316.15C 657.2601 319.24 658.2201 321.86 660.1601 324.00998C 662.0901 326.15997 664.5301 327.22998 667.4901 327.22998C 669.3701 327.22998 671.0001 326.88998 672.3701 326.21997C 673.7501 325.54996 675.21014 324.50998 676.7501 323.09998L676.7501 323.09998L681.6901 328.08997C 679.7401 330.16995 677.65015 331.73996 675.4201 332.79996C 673.1801 333.86996 670.45013 334.38995 667.2301 334.38995L667.2301 334.38995L667.23 334.39z" stroke="none" fill="#E6204E" fill-rule="nonzero" />
	<g transform="matrix(0.83983356 0 0 1 33.17207 0)">
	</g>
    <path transform="matrix(0.83983356 0 0 1 33.17207 0)"  d="M213.55 353.48L207.11 353.48L207.11 350.17L223.59 350.17L223.59 353.48L217.15 353.48L217.15 370.48L213.54999 370.48L213.55 353.48z" stroke="none" fill="#424242" fill-rule="nonzero" />
	<g transform="matrix(0.83983356 0 0 1 33.17207 0)">
	</g>
    <path transform="matrix(0.83983356 0 0 1 33.17207 0)"  d="M222.8 362.88L222.8 362.82C 222.8 358.44 225.90001 354.84 230.28 354.84C 235.15 354.84 237.62 358.66998 237.62 363.08C 237.62 363.4 237.59 363.72 237.56 364.06998L237.56 364.06998L226.31 364.06998C 226.69 366.55997 228.45999 367.96 230.72 367.96C 232.43001 367.96 233.65 367.31998 234.87 366.13L234.87 366.13L236.93 367.96C 235.48 369.69998 233.48 370.83 230.65999 370.83C 226.21999 370.83 222.79999 367.61 222.79999 362.87997L222.79999 362.87997L222.8 362.88zM234.14 361.75C 233.91 359.49 232.56999 357.72 230.25 357.72C 228.1 357.72 226.6 359.37 226.28 361.75z" stroke="none" fill="#424242" fill-rule="nonzero" />
	<g transform="matrix(0.83983356 0 0 1 33.17207 0)">
	</g>
    <path transform="matrix(0.83983356 0 0 1 33.17207 0)"  d="M240.31 362.91L240.31 362.85C 240.31 358.5 243.67 354.84 248.29 354.84C 251.15999 354.84 252.95999 355.91 254.40999 357.48L254.40999 357.48L252.20999 359.83002C 251.13998 358.7 250.01 357.92 248.26 357.92C 245.70999 357.92 243.81999 360.12003 243.81999 362.79L243.81999 362.79L243.81999 362.85C 243.81999 365.58002 245.70999 367.75 248.4 367.75C 250.04999 367.75 251.26999 367 252.37 365.86L252.37 365.86L254.48999 367.94998C 252.98 369.62997 251.20999 370.81998 248.21999 370.81998C 243.68 370.83 240.30998 367.25998 240.30998 362.90997L240.30998 362.90997L240.31 362.91z" stroke="none" fill="#424242" fill-rule="nonzero" />
	<g transform="matrix(0.83983356 0 0 1 33.17207 0)">
	</g>
    <path transform="matrix(0.83983356 0 0 1 33.17207 0)"  d="M257.71 349.31L261.22 349.31L261.22 357.52C 262.21 356.09998 263.63 354.84998 266.01 354.84998C 269.46002 354.84998 271.46002 357.16998 271.46002 360.70996L271.46002 360.70996L271.46002 370.48996L267.95 370.48996L267.95 361.78995C 267.95 359.40994 266.76 358.04996 264.67 358.04996C 262.64 358.04996 261.22 359.46997 261.22 361.84995L261.22 361.84995L261.22 370.48996L257.71 370.48996L257.71 349.30997L257.71 349.31z" stroke="none" fill="#424242" fill-rule="nonzero" />
	<g transform="matrix(0.83983356 0 0 1 33.17207 0)">
	</g>
    <path transform="matrix(0.83983356 0 0 1 33.17207 0)"  d="M275.69 355.17L279.2 355.17L279.2 357.52002C 280.19 356.1 281.61002 354.85 283.99002 354.85C 287.44003 354.85 289.44003 357.17 289.44003 360.71L289.44003 360.71L289.44003 370.49L285.93002 370.49L285.93002 361.78998C 285.93002 359.40997 284.74002 358.05 282.65002 358.05C 280.62003 358.05 279.2 359.47 279.2 361.84998L279.2 361.84998L279.2 370.49L275.69 370.49L275.69 355.16998L275.69 355.17z" stroke="none" fill="#424242" fill-rule="nonzero" />
	<g transform="matrix(0.83983356 0 0 1 33.17207 0)">
	</g>
    <path transform="matrix(0.83983356 0 0 1 33.17207 0)"  d="M292.83 362.91L292.83 362.85C 292.83 358.47 296.31 354.84 301.00998 354.84C 305.71 354.84 309.15997 358.41 309.15997 362.79L309.15997 362.79L309.15997 362.85C 309.15997 367.2 305.67996 370.83002 300.94998 370.83002C 296.27997 370.83002 292.83 367.26 292.83 362.91zM305.65 362.91L305.65 362.85C 305.65 360.15 303.71 357.92 300.94998 357.92C 298.13998 357.92 296.34 360.12003 296.34 362.79L296.34 362.79L296.34 362.85C 296.34 365.52002 298.28 367.75 301.01 367.75C 303.85 367.76 305.65002 365.55 305.65002 362.91z" stroke="none" fill="#424242" fill-rule="nonzero" />
	<g transform="matrix(0.83983356 0 0 1 33.17207 0)">
	</g>
    <path transform="matrix(0.83983356 0 0 1 33.17207 0)"  d="M312.93 349.31L316.44 349.31L316.44 370.48L312.93 370.48L312.93 349.31z" stroke="none" fill="#424242" fill-rule="nonzero" />
	<g transform="matrix(0.83983356 0 0 1 33.17207 0)">
	</g>
    <path transform="matrix(0.83983356 0 0 1 33.17207 0)"  d="M320.18 362.91L320.18 362.85C 320.18 358.47 323.66 354.84 328.36 354.84C 333.06 354.84 336.50998 358.41 336.50998 362.79L336.50998 362.79L336.50998 362.85C 336.50998 367.2 333.02997 370.83002 328.3 370.83002C 323.62997 370.83002 320.18 367.26 320.18 362.91zM333 362.91L333 362.85C 333 360.15 331.06 357.92 328.3 357.92C 325.49 357.92 323.69 360.12003 323.69 362.79L323.69 362.79L323.69 362.85C 323.69 365.52002 325.63 367.75 328.36002 367.75C 331.2 367.76 333.00003 365.55 333.00003 362.91z" stroke="none" fill="#424242" fill-rule="nonzero" />
	<g transform="matrix(0.83983356 0 0 1 33.17207 0)">
	</g>
    <path transform="matrix(0.83983356 0 0 1 33.17207 0)"  d="M340.04 373.35L341.34 370.71C 342.99 371.72 344.71 372.33 346.79 372.33C 349.92 372.33 351.63 370.71 351.63 367.62997L351.63 367.62997L351.63 366.43997C 350.35 368.08997 348.76 369.24997 346.23 369.24997C 342.63 369.24997 339.27002 366.57996 339.27002 362.08997L339.27002 362.08997L339.27002 362.02997C 339.27002 357.50998 342.66003 354.83997 346.23 354.83997C 348.81 354.83997 350.41 356.02997 351.6 357.44995L351.6 357.44995L351.6 355.15994L355.11002 355.15994L355.11002 367.33994C 355.11002 369.91992 354.44 371.83994 353.17 373.10992C 351.78 374.49994 349.63 375.16992 346.88 375.16992C 344.37 375.17993 342.02002 374.53992 340.04 373.3499L340.04 373.3499L340.04 373.35zM351.68002 362.07L351.68002 362.01C 351.68002 359.51 349.62003 357.80002 347.18002 357.80002C 344.74002 357.80002 342.83002 359.48 342.83002 362.01L342.83002 362.01L342.83002 362.07C 342.83002 364.57 344.77002 366.28 347.18002 366.28C 349.62003 366.28 351.68002 364.57 351.68002 362.07z" stroke="none" fill="#424242" fill-rule="nonzero" />
	<g transform="matrix(0.83983356 0 0 1 33.17207 0)">
	</g>
    <path transform="matrix(0.83983356 0 0 1 33.17207 0)"  d="M359.59 349.48L363.36 349.48L363.36 352.82L359.59 352.82L359.59 349.48zM359.73 355.17L363.24002 355.17L363.24002 370.49002L359.73 370.49002z" stroke="none" fill="#424242" fill-rule="nonzero" />
	<g transform="matrix(0.83983356 0 0 1 33.17207 0)">
	</g>
    <path transform="matrix(0.83983356 0 0 1 33.17207 0)"  d="M366.98 362.88L366.98 362.82C 366.98 358.44 370.08002 354.84 374.46002 354.84C 379.33002 354.84 381.80002 358.66998 381.80002 363.08C 381.80002 363.4 381.77002 363.72 381.74002 364.06998L381.74002 364.06998L370.49002 364.06998C 370.87003 366.55997 372.64 367.96 374.90002 367.96C 376.61002 367.96 377.83002 367.31998 379.05002 366.13L379.05002 366.13L381.11002 367.96C 379.66 369.69998 377.66 370.83 374.85 370.83C 370.41 370.83 366.98 367.61 366.98 362.87997L366.98 362.87997L366.98 362.88zM378.33002 361.75C 378.1 359.49 376.76 357.72 374.44 357.72C 372.29 357.72 370.78 359.37 370.47 361.75z" stroke="none" fill="#424242" fill-rule="nonzero" />
	<g transform="matrix(0.83983356 0 0 1 33.17207 0)">
	</g>
    <path transform="matrix(0.83983356 0 0 1 33.17207 0)"  d="M384.09 368.48L385.66 366.1C 387.34 367.35 389.11002 367.99002 390.68 367.99002C 392.19 367.99002 393.06 367.35 393.06 366.34003L393.06 366.34003L393.06 366.28003C 393.06 365.09003 391.44 364.68002 389.63998 364.13004C 387.37997 363.49002 384.84998 362.56003 384.84998 359.63004L384.84998 359.63004L384.84998 359.57004C 384.84998 356.67004 387.25998 354.90002 390.3 354.90002C 392.21 354.90002 394.3 355.57004 395.93 356.64L395.93 356.64L394.53998 359.13C 393.05997 358.23 391.49997 357.68 390.21997 357.68C 388.86 357.68 388.06998 358.32 388.06998 359.19L388.06998 359.19L388.06998 359.25C 388.06998 360.38 389.71997 360.85 391.52 361.43C 393.75 362.13 396.28 363.13998 396.28 365.9L396.28 365.9L396.28 365.96C 396.28 369.18 393.78 370.78 390.59 370.78C 388.41998 370.77 386.01 369.99 384.09 368.48z" stroke="none" fill="#424242" fill-rule="nonzero" />
</g>
</svg>